<?xml version="1.0" standalone="no"?>
<!DOCTYPE svg PUBLIC "-//W3C//DTD SVG 20010904//EN"
 "http://www.w3.org/TR/2001/REC-SVG-20010904/DTD/svg10.dtd">
<svg version="1.0" xmlns="http://www.w3.org/2000/svg"
 width="287.000000pt" height="287.000000pt" viewBox="0 0 287.000000 287.000000"
 preserveAspectRatio="xMidYMid meet">

<g transform="translate(0.000000,287.000000) scale(0.100000,-0.100000)"
fill="#000000" stroke="none">
<path d="M1230 2590 c-11 -7 -5 -8 20 -4 43 8 51 14 19 14 -13 0 -31 -5 -39
-10z"/>
<path d="M1345 2572 c58 -20 125 -65 173 -115 25 -26 37 -51 49 -103 8 -38 19
-74 24 -80 11 -14 29 -205 30 -324 1 -52 4 -106 9 -120 14 -49 23 44 18 206
-2 85 -1 149 3 142 4 -7 9 -107 12 -223 5 -221 13 -265 49 -265 56 0 84 52 75
139 -8 72 12 147 47 180 29 27 102 45 114 27 4 -6 22 -22 41 -35 l33 -23 -7
22 c-5 15 -4 20 4 16 6 -4 11 -13 11 -19 0 -7 11 -32 24 -57 18 -34 24 -62 24
-115 1 -38 5 -116 9 -172 5 -57 6 -103 2 -103 -3 0 -12 46 -19 103 -8 56 -15
93 -17 82 -9 -51 -14 -65 -23 -65 -6 0 -10 10 -10 22 0 12 -2 19 -5 16 -3 -3
0 -48 6 -100 15 -134 7 -152 -17 -33 -16 85 -20 95 -25 65 l-5 -35 -17 35 c-9
19 -15 26 -13 15 16 -73 37 -227 33 -237 -2 -7 -16 41 -31 107 -33 145 -34
148 -36 110 -2 -30 -2 -30 -10 -5 -13 38 0 -59 20 -154 16 -73 18 -97 6 -85
-5 5 -68 240 -69 257 0 6 -4 12 -7 12 -10 0 -2 -72 20 -188 9 -51 13 -95 9
-97 -4 -3 -17 39 -29 92 -12 54 -25 112 -30 128 -8 29 -8 29 -9 4 -2 -41 20
-192 31 -211 6 -12 5 -18 -2 -18 -15 0 -26 34 -45 136 -9 49 -20 103 -25 119
-7 28 -8 28 -9 5 -1 -30 34 -227 44 -252 4 -11 3 -18 -4 -18 -9 0 -18 24 -50
140 -9 34 -9 33 -10 -20 0 -30 4 -100 9 -155 6 -54 6 -103 2 -107 -4 -4 -14
49 -21 119 -7 71 -17 146 -21 168 l-8 40 -2 -50 c-2 -45 -3 -47 -10 -20 -14
57 -10 -171 6 -325 8 -83 14 -156 12 -162 -5 -14 -36 229 -53 407 -11 110 -13
119 -14 61 -1 -75 -11 -81 -22 -13 -6 40 -7 40 -8 -18 0 -33 4 -136 9 -230 26
-461 21 -478 -14 -47 -23 278 -34 360 -37 261 l-2 -44 -8 35 c-8 34 -3 -478 5
-610 3 -36 -2 -9 -10 60 -8 69 -18 220 -24 335 -11 243 -11 236 -22 229 -6 -4
-7 -158 -4 -373 l5 -366 -14 280 c-17 342 -25 468 -32 461 -3 -2 -4 -65 -4
-138 2 -140 -14 -442 -29 -543 -8 -50 -8 -44 -4 35 9 151 11 479 4 550 -6 58
-7 52 -10 -55 l-3 -120 -11 90 c-12 88 -12 87 -8 -75 3 -127 -1 -209 -17 -355
-29 -251 -58 -441 -67 -433 -2 2 3 44 11 93 24 147 44 352 49 505 4 127 4 136
-5 70 -11 -78 -31 -111 -38 -62 -2 16 -11 -12 -21 -73 -9 -55 -26 -154 -38
-220 -11 -66 -23 -155 -27 -198 -4 -42 -10 -75 -14 -73 -10 6 5 177 28 314 11
64 22 142 25 172 l5 55 -13 -58 c-17 -74 -28 -84 -21 -21 4 39 1 33 -15 -31
-26 -107 -53 -312 -46 -354 4 -26 2 -31 -6 -23 -18 18 -10 168 18 331 24 139
27 199 6 109 -6 -24 -17 -70 -25 -103 -9 -33 -18 -73 -21 -90 -2 -16 -3 2 0
40 2 39 11 96 19 128 30 116 46 231 39 290 -6 56 -8 58 -33 52 -70 -15 -131
-21 -143 -14 -9 6 -9 9 -1 9 6 0 9 9 6 20 -8 31 -23 24 -23 -11 0 -39 -22 -34
-31 7 -5 19 -7 22 -8 9 -2 -20 -2 -20 -16 -1 -14 19 -15 19 -15 -6 0 -15 -3
-29 -7 -31 -5 -3 -43 4 -86 14 -99 24 -179 73 -207 129 -68 134 -38 444 55
565 37 50 112 102 163 115 59 15 114 -2 165 -49 l41 -38 0 -99 c0 -55 -5 -117
-11 -139 -17 -60 -26 -153 -14 -135 5 8 11 12 13 10 2 -3 8 -14 14 -25 6 -12
24 -21 41 -23 62 -6 95 82 95 253 0 135 -15 196 -87 358 -82 188 -93 253 -55
328 21 40 90 98 119 100 9 0 11 3 4 5 -29 12 -121 -62 -143 -117 -15 -35 -52
-43 -270 -59 -85 -6 -180 -16 -210 -22 -112 -21 -209 -115 -229 -223 -7 -37 2
-178 35 -575 24 -289 46 -556 49 -595 23 -288 36 -425 44 -453 23 -76 89 -149
169 -184 54 -24 123 -25 357 -4 207 19 268 20 241 4 -26 -15 -415 -50 -506
-45 -92 4 -161 38 -221 106 -21 24 -39 40 -39 34 0 -5 5 -14 12 -21 9 -9 -3
-12 -54 -12 -44 0 -68 -4 -71 -12 -3 -7 -8 2 -12 20 -11 48 -29 40 -21 -10 14
-88 80 -174 165 -218 87 -44 73 -45 1013 35 486 41 898 77 917 81 101 17 204
102 240 199 12 32 18 62 13 67 -4 4 -16 -15 -27 -44 -26 -72 -103 -149 -175
-175 -50 -19 -243 -43 -229 -29 3 3 48 9 100 14 89 9 178 37 194 62 4 6 -37
10 -117 11 -119 1 -122 1 -83 15 22 8 51 23 65 34 21 17 17 17 -30 -4 -30 -14
-75 -27 -100 -31 -100 -14 -387 -31 -420 -25 l-35 7 35 7 c19 3 130 15 245 25
242 21 278 33 349 112 50 55 76 121 76 189 0 26 -14 195 -30 376 -17 181 -46
514 -66 739 -19 226 -39 426 -45 447 -24 91 -126 187 -218 205 -20 3 -157 -3
-306 -16 -148 -12 -284 -21 -300 -21 -20 0 -51 15 -90 45 -57 43 -130 76 -164
74 -9 0 7 -8 34 -17z m804 -867 c-1 -24 -8 4 -19 70 -24 141 -23 177 1 60 10
-49 18 -108 18 -130z m-232 -127 c-3 -8 -6 -5 -6 6 -1 11 2 17 5 13 3 -3 4
-12 1 -19z m-927 -368 c0 -5 -2 -10 -4 -10 -3 0 -8 5 -11 10 -3 6 -1 10 4 10
6 0 11 -4 11 -10z m727 -287 c-3 -10 -5 -2 -5 17 0 19 2 27 5 18 2 -10 2 -26
0 -35z m10 -75 c-3 -7 -5 -2 -5 12 0 14 2 19 5 13 2 -7 2 -19 0 -25z m-80
-120 c-2 -13 -4 -3 -4 22 0 25 2 35 4 23 2 -13 2 -33 0 -45z m-70 -70 c-2 -13
-4 -5 -4 17 -1 22 1 32 4 23 2 -10 2 -28 0 -40z m-160 -40 c-2 -13 -4 -5 -4
17 -1 22 1 32 4 23 2 -10 2 -28 0 -40z m240 20 c-3 -7 -5 -2 -5 12 0 14 2 19
5 13 2 -7 2 -19 0 -25z m-70 -60 c-3 -8 -6 -5 -6 6 -1 11 2 17 5 13 3 -3 4
-12 1 -19z m-180 -35 c-3 -10 -5 -4 -5 12 0 17 2 24 5 18 2 -7 2 -21 0 -30z
m-10 -65 c-3 -7 -5 -2 -5 12 0 14 2 19 5 13 2 -7 2 -19 0 -25z m-10 -60 c-3
-8 -6 -5 -6 6 -1 11 2 17 5 13 3 -3 4 -12 1 -19z m910 -14 c-3 -3 -12 -4 -19
-1 -8 3 -5 6 6 6 11 1 17 -2 13 -5z m-119 -91 c-10 -2 -26 -2 -35 0 -10 3 -2
5 17 5 19 0 27 -2 18 -5z m-105 -10 c-13 -2 -33 -2 -45 0 -13 2 -3 4 22 4 25
0 35 -2 23 -4z m-125 -10 c-10 -2 -28 -2 -40 0 -13 2 -5 4 17 4 22 1 32 -1 23
-4z m-115 -10 c-7 -2 -21 -2 -30 0 -10 3 -4 5 12 5 17 0 24 -2 18 -5z"/>
<path d="M1802 1655 c0 -16 2 -22 5 -12 2 9 2 23 0 30 -3 6 -5 -1 -5 -18z"/>
<path d="M1732 1570 c0 -14 2 -19 5 -12 2 6 2 18 0 25 -3 6 -5 1 -5 -13z"/>
<path d="M1701 1564 c0 -11 3 -14 6 -6 3 7 2 16 -1 19 -3 4 -6 -2 -5 -13z"/>
<path d="M876 1245 c-3 -8 -1 -15 4 -15 6 0 10 7 10 15 0 8 -2 15 -4 15 -2 0
-6 -7 -10 -15z"/>
<path d="M916 1244 c-9 -22 -8 -24 9 -24 8 0 15 9 15 20 0 24 -15 27 -24 4z"/>
<path d="M332 500 c0 -14 2 -19 5 -12 2 6 2 18 0 25 -3 6 -5 1 -5 -13z"/>
</g>
</svg>
