<?xml version="1.0" standalone="no"?>
<!DOCTYPE svg PUBLIC "-//W3C//DTD SVG 20010904//EN"
 "http://www.w3.org/TR/2001/REC-SVG-20010904/DTD/svg10.dtd">
<svg version="1.0" xmlns="http://www.w3.org/2000/svg"
 width="1253.000000pt" height="1253.000000pt" viewBox="0 0 1253.000000 1253.000000"
 preserveAspectRatio="xMidYMid meet">
<metadata>
Created by potrace 1.14, written by Peter Selinger 2001-2017
</metadata>
<g transform="translate(0.000000,1253.000000) scale(0.100000,-0.100000)"
fill="#000000" stroke="none">
<path d="M6060 12414 c-102 -58 -214 -122 -250 -141 -36 -20 -157 -87 -269
-150 -112 -62 -208 -113 -212 -113 -5 0 -9 -4 -9 -10 0 -5 -4 -10 -8 -10 -7 0
-236 -125 -447 -245 -27 -15 -129 -71 -225 -125 -96 -53 -269 -150 -385 -215
-115 -65 -235 -132 -265 -148 -30 -17 -147 -82 -260 -145 -113 -63 -245 -137
-295 -165 -49 -27 -110 -61 -135 -75 -25 -14 -58 -32 -75 -40 -16 -8 -41 -23
-55 -32 -14 -10 -52 -32 -85 -49 -33 -18 -67 -36 -75 -41 -17 -11 -816 -457
-895 -500 -27 -15 -124 -69 -215 -120 -268 -150 -500 -280 -570 -318 -36 -19
-69 -38 -75 -42 -5 -4 -37 -22 -70 -40 -33 -18 -78 -43 -100 -55 -22 -13 -64
-35 -92 -51 -42 -22 -53 -33 -54 -53 -1 -34 -1 -5382 0 -5399 1 -8 26 1 74 26
39 22 153 84 252 137 99 54 200 109 225 123 25 13 101 55 170 92 69 37 157 85
195 105 107 58 139 76 151 86 6 5 13 7 16 4 3 -3 11 1 18 10 7 8 16 15 20 15
4 0 43 20 86 43 80 44 179 98 289 157 33 18 83 45 110 60 105 57 273 149 345
187 41 22 122 66 180 98 58 32 143 78 190 102 47 25 99 53 115 63 17 9 60 34
98 54 37 20 97 52 135 72 37 20 81 44 97 54 17 10 75 41 130 70 55 29 105 56
110 60 6 4 55 31 110 60 55 29 143 76 195 105 52 29 124 68 160 87 36 19 121
66 190 103 69 37 154 84 190 103 36 19 85 46 110 60 25 14 83 45 130 70 47 25
111 60 143 78 32 19 60 34 62 34 2 0 34 17 72 38 58 33 186 103 271 148 20 10
33 8 85 -13 309 -123 615 -149 952 -79 147 31 384 131 515 217 249 165 459
405 579 664 170 364 195 800 70 1180 -42 127 -136 314 -210 419 -167 235 -421
443 -662 542 -34 13 -71 29 -82 34 -86 37 -246 75 -400 95 -54 7 -257 7 -325
0 -98 -10 -346 -65 -375 -83 -5 -4 -12 -7 -15 -8 -43 -13 -72 -26 -170 -76
-317 -161 -577 -427 -722 -738 -141 -302 -183 -605 -132 -961 l6 -47 -98 -54
c-55 -30 -184 -101 -289 -158 -104 -57 -212 -115 -240 -130 -27 -15 -77 -42
-110 -60 -33 -18 -178 -97 -323 -176 -144 -79 -265 -144 -268 -144 -3 0 -18
-8 -32 -18 -15 -10 -65 -39 -112 -64 -138 -74 -214 -115 -425 -231 -110 -60
-243 -132 -295 -160 -52 -28 -108 -59 -125 -69 -16 -10 -34 -18 -40 -18 -7 0
-10 387 -10 1140 0 1127 0 1140 20 1153 19 13 86 49 285 155 47 24 117 61 155
82 155 84 184 99 270 145 50 26 113 60 140 75 28 15 84 45 125 67 164 88 237
127 290 156 30 16 96 51 145 77 50 26 110 59 135 72 25 14 90 49 145 78 55 29
114 60 130 70 17 10 84 46 150 80 66 35 125 66 130 70 6 4 64 35 130 70 66 34
134 70 150 80 17 9 75 41 130 70 55 29 127 67 160 85 33 18 103 55 155 83 52
27 129 69 170 91 41 23 98 53 125 67 28 14 70 36 95 50 47 26 155 85 325 174
55 29 160 86 234 127 74 40 138 73 142 73 8 0 123 -60 244 -127 33 -18 67 -36
75 -40 17 -8 578 -308 745 -398 61 -33 140 -76 275 -148 41 -22 98 -52 125
-67 28 -15 89 -48 138 -74 48 -25 126 -67 175 -92 48 -26 110 -59 137 -74 28
-15 86 -47 130 -70 135 -72 270 -144 420 -225 33 -18 98 -53 145 -77 47 -25
175 -94 285 -153 406 -218 454 -244 565 -303 47 -25 168 -90 270 -144 101 -55
191 -100 200 -100 8 -1 51 19 95 44 44 25 112 62 150 83 72 38 142 77 230 125
28 15 80 44 118 64 37 20 97 52 135 72 37 20 90 49 117 64 125 69 172 95 215
117 25 13 90 48 145 79 55 30 119 64 143 76 23 12 42 26 42 30 0 4 -21 19 -47
33 -27 14 -66 36 -88 48 -22 13 -69 39 -105 59 -36 20 -139 77 -230 128 -91
51 -185 104 -210 118 -25 14 -65 36 -90 50 -25 14 -180 100 -345 192 -428 239
-401 224 -500 280 -19 10 -65 36 -102 56 -37 20 -72 40 -78 44 -5 4 -35 21
-65 38 -30 16 -116 63 -190 105 -74 41 -157 87 -185 102 -27 15 -54 31 -60 35
-5 4 -46 27 -90 50 -44 24 -93 51 -110 61 -16 10 -50 29 -75 42 -25 13 -137
76 -250 139 -271 152 -266 150 -335 188 -164 90 -324 180 -355 199 -19 11 -42
24 -50 28 -8 3 -64 34 -125 68 -60 34 -137 77 -170 95 -33 18 -76 42 -95 53
-100 57 -619 346 -700 390 -30 17 -72 41 -92 54 -21 13 -40 23 -42 23 -2 0
-35 17 -73 39 -37 21 -88 49 -113 63 -25 14 -77 44 -117 67 -40 22 -77 41 -82
41 -5 0 -11 3 -13 8 -5 11 -124 72 -139 71 -8 0 -97 -48 -199 -105z m295
-3788 c195 -31 367 -192 420 -393 16 -61 21 -178 10 -228 -38 -168 -147 -307
-296 -378 -91 -43 -157 -56 -259 -51 -133 6 -252 62 -351 164 -131 136 -179
339 -124 519 19 62 37 97 82 161 32 46 45 59 121 117 106 80 248 112 397 89z"/>
<path d="M11515 8376 c-33 -18 -112 -61 -175 -96 -63 -34 -158 -85 -210 -113
-52 -27 -99 -53 -105 -57 -5 -4 -46 -26 -90 -50 -117 -62 -272 -147 -355 -192
-25 -14 -74 -41 -110 -60 -105 -57 -311 -168 -365 -198 -27 -15 -81 -44 -120
-65 -66 -35 -89 -48 -225 -122 -30 -17 -82 -45 -115 -63 -196 -105 -241 -130
-480 -260 -27 -15 -140 -76 -250 -136 -110 -59 -218 -118 -240 -130 -22 -13
-60 -33 -85 -46 -81 -43 -224 -120 -293 -160 -38 -21 -70 -38 -72 -38 -2 0
-34 -17 -72 -38 -37 -21 -111 -62 -164 -90 -53 -28 -120 -65 -148 -82 -29 -16
-54 -30 -57 -30 -2 0 -39 -20 -82 -43 -42 -24 -122 -68 -177 -97 -55 -29 -104
-56 -110 -60 -5 -4 -57 -32 -115 -63 -58 -30 -163 -87 -235 -126 -71 -39 -136
-71 -143 -71 -7 0 -38 11 -70 24 -122 50 -279 90 -412 103 -126 13 -403 5
-453 -12 -7 -3 -23 -6 -37 -9 -14 -2 -45 -9 -70 -16 -25 -7 -52 -14 -60 -15
-69 -16 -207 -72 -300 -122 -302 -162 -535 -401 -686 -703 -46 -94 -106 -252
-118 -312 -2 -13 -9 -43 -15 -68 -5 -25 -13 -67 -16 -95 -3 -27 -8 -60 -11
-73 -7 -33 -7 -269 1 -327 15 -123 40 -238 72 -334 193 -584 701 -1005 1314
-1088 110 -15 384 -8 479 12 14 3 48 9 75 14 80 15 232 69 342 121 377 179
679 516 816 912 20 57 38 114 41 128 8 41 15 71 20 88 3 9 8 40 11 67 3 28 7
61 10 75 7 35 8 289 2 325 -3 17 -9 53 -12 80 -3 28 -8 57 -11 67 -5 16 11 27
166 110 36 20 166 90 290 158 124 68 254 138 290 158 36 19 83 45 105 57 22
12 65 36 95 52 30 17 121 67 203 112 81 44 149 81 152 81 2 0 30 15 62 33 32
19 92 52 133 74 41 22 91 49 110 60 19 11 64 36 100 55 36 19 146 79 245 133
99 54 209 114 245 133 36 19 89 48 118 64 28 16 52 25 53 19 0 -6 1 -517 1
-1136 0 -1268 1 -1155 -10 -1155 -5 0 -78 -37 -163 -83 -85 -46 -199 -107
-254 -136 -55 -30 -122 -66 -150 -81 -43 -23 -315 -169 -560 -300 -142 -76
-231 -124 -280 -150 -27 -15 -104 -56 -170 -91 -66 -35 -142 -76 -170 -91 -27
-15 -79 -42 -115 -61 -36 -19 -90 -48 -120 -64 -65 -35 -179 -96 -287 -154
-43 -23 -100 -54 -128 -69 -27 -15 -88 -48 -135 -72 -47 -25 -105 -57 -130
-70 -25 -14 -99 -54 -165 -88 -66 -34 -124 -66 -130 -70 -5 -4 -68 -38 -140
-75 -71 -37 -148 -78 -170 -90 -46 -26 -130 -71 -260 -140 -49 -26 -108 -58
-130 -70 -22 -12 -92 -50 -157 -84 l-116 -62 -99 54 c-54 29 -143 77 -198 107
-55 29 -122 65 -150 80 -27 15 -90 49 -140 75 -87 46 -164 88 -270 145 -27 15
-90 49 -140 75 -87 46 -144 77 -277 149 -82 44 -193 103 -293 156 -44 23 -111
59 -150 80 -151 81 -494 265 -565 303 -41 22 -106 56 -145 77 -94 50 -322 173
-415 222 -41 22 -97 53 -125 68 -27 15 -89 48 -138 74 -48 25 -126 67 -175 92
-48 26 -109 59 -137 74 -27 15 -84 45 -125 67 -41 23 -106 57 -145 78 -38 21
-108 58 -155 82 l-85 45 -137 -75 c-75 -42 -174 -96 -220 -120 -46 -25 -103
-56 -128 -70 -25 -13 -74 -40 -110 -59 -71 -38 -392 -212 -480 -261 -144 -79
-219 -119 -267 -144 -41 -21 -50 -30 -41 -40 6 -7 14 -13 19 -13 5 0 26 -11
47 -24 20 -12 64 -37 97 -55 33 -18 67 -36 75 -41 20 -12 211 -119 285 -160
50 -28 515 -287 688 -383 26 -15 68 -39 95 -53 46 -26 517 -289 942 -527 118
-66 224 -125 235 -131 208 -116 303 -169 315 -177 8 -5 51 -29 95 -53 90 -49
102 -55 380 -211 110 -62 232 -129 270 -150 39 -22 107 -60 153 -87 46 -26 85
-48 87 -48 2 0 30 -15 62 -34 32 -18 81 -46 108 -61 28 -15 88 -49 135 -75 47
-26 108 -60 135 -75 28 -15 85 -48 128 -72 42 -24 99 -55 125 -70 26 -14 81
-45 122 -68 41 -23 95 -53 120 -67 69 -38 471 -263 535 -299 l56 -32 52 28
c42 23 537 299 752 420 28 15 75 41 105 58 30 17 100 56 155 87 55 31 107 59
115 63 8 4 24 13 35 20 26 15 226 127 285 159 25 14 61 34 80 45 19 11 62 35
95 53 78 43 110 61 170 95 28 15 183 102 345 193 162 90 321 179 353 198 32
19 60 34 62 34 2 0 46 24 97 54 51 29 120 67 153 85 33 18 67 36 75 41 8 6 44
26 80 46 36 20 90 50 120 67 30 16 71 39 90 50 19 10 49 27 65 37 17 9 57 32
90 50 94 51 166 91 210 116 22 13 105 60 185 105 80 44 158 88 175 97 16 10
117 66 225 125 219 122 301 168 580 324 107 60 224 126 260 145 36 20 121 68
190 106 l125 70 2 2711 c0 1491 -2 2713 -6 2715 -4 3 -33 -10 -66 -28z m-5143
-3427 c29 -6 85 -26 123 -44 348 -167 403 -635 104 -885 -210 -174 -515 -158
-709 39 -139 140 -182 306 -136 519 13 60 75 161 136 222 130 131 307 185 482
149z"/>
</g>
</svg>
