<?xml version="1.0" standalone="no"?>
<!DOCTYPE svg PUBLIC "-//W3C//DTD SVG 20010904//EN"
 "http://www.w3.org/TR/2001/REC-SVG-20010904/DTD/svg10.dtd">
<svg version="1.0" xmlns="http://www.w3.org/2000/svg"
 width="1253.000000pt" height="1253.000000pt" viewBox="0 0 1253.000000 1253.000000"
 preserveAspectRatio="xMidYMid meet">
<metadata>
Created by potrace 1.14, written by Peter Selinger 2001-2017
</metadata>
<g transform="translate(0.000000,1253.000000) scale(0.100000,-0.100000)"
fill="#000000" stroke="none">
<path d="M3593 11042 l-2663 -1487 0 -2717 c0 -1974 3 -2718 11 -2718 6 0
1057 567 2334 1261 l2324 1260 110 -40 c61 -22 168 -53 238 -67 110 -23 153
-27 308 -28 194 0 294 13 458 60 311 88 610 291 809 549 154 198 247 395 304
641 39 171 46 434 15 613 -182 1070 -1337 1651 -2309 1162 -602 -302 -953
-976 -857 -1646 7 -55 11 -101 7 -103 -4 -2 -533 -290 -1177 -641 l-1170 -639
-3 1136 c-1 625 1 1139 6 1144 13 13 3916 2101 3927 2101 5 0 889 -472 1964
-1047 1074 -576 1959 -1046 1966 -1044 28 7 1394 754 1392 761 -2 8 -5316
2977 -5326 2976 -3 0 -1204 -669 -2668 -1487z m2791 -2427 c92 -24 166 -65
238 -134 184 -172 218 -446 82 -657 -146 -230 -436 -309 -683 -187 -80 40
-190 152 -229 233 -99 209 -62 440 98 600 135 136 320 190 494 145z"/>
<path d="M10350 7749 c-679 -369 -1728 -938 -2330 -1265 l-1095 -594 -75 31
c-326 133 -747 144 -1095 28 -397 -132 -728 -419 -920 -795 -193 -378 -224
-851 -83 -1253 187 -533 630 -921 1192 -1043 87 -19 131 -22 321 -22 190 0
234 3 321 22 272 59 508 175 721 353 387 325 602 852 553 1351 -7 73 -14 146
-14 161 -1 28 33 47 1164 664 641 349 1171 637 1178 640 9 4 12 -227 12 -1134
l0 -1139 -1966 -1053 -1967 -1053 -34 16 c-19 9 -899 480 -1956 1045 -1057
566 -1927 1031 -1933 1033 -16 4 -1414 -756 -1405 -764 4 -5 1203 -676 2666
-1492 l2658 -1485 67 37 c36 20 1235 690 2663 1487 l2597 1450 0 2723 c0 1497
-1 2722 -2 2722 -2 0 -559 -302 -1238 -671z m-3924 -2820 c208 -64 364 -278
364 -499 0 -140 -51 -261 -156 -367 -89 -90 -181 -138 -299 -155 -309 -44
-595 207 -595 522 0 300 265 547 560 523 35 -3 92 -14 126 -24z"/>
</g>
</svg>
