<?xml version="1.0" encoding="utf-8"?>
<!-- Generator: Adobe Illustrator 26.0.1, SVG Export Plug-In . SVG Version: 6.00 Build 0)  -->
<svg version="1.2" baseProfile="tiny-ps" xmlns:xlink="http://www.w3.org/1999/xlink" viewBox="0 0 368.5 368.5" xmlns="http://www.w3.org/2000/svg">
  <title>Smart infra Solutions</title>
<g>
	<g>
		<path fill="#376FB6" d="M184.25,295.34l-94.22-50.46L56.49,263.1l127.75,71.33v0.01h0.01h0v-0.01l127.75-71.33V132.76    l-111.88,60.71c-4.83-2.18-10.19-3.45-15.84-3.45c-21.17,0-38.33,17.16-38.33,38.32s17.16,38.33,38.33,38.33    c21.17,0,38.33-17.16,38.33-38.33c0-2.66-0.27-5.22-0.78-7.73l56.99-31.05v55.13L184.25,295.34z M184.29,241.13    c-7.06,0-12.78-5.72-12.78-12.79c0-7.06,5.72-12.77,12.78-12.77c7.05,0,12.76,5.72,12.76,12.77    C197.06,235.41,191.34,241.13,184.29,241.13z" />
		<path fill="#39BCE0" d="M184.25,73.16l94.22,50.46l33.54-18.22L184.26,34.08v-0.01h0h-0.01v0.01L56.49,105.4v130.34l111.88-60.71    c4.83,2.18,10.18,3.45,15.83,3.45c21.17,0,38.33-17.16,38.33-38.33s-17.15-38.33-38.33-38.33c-21.17,0-38.33,17.16-38.33,38.33    c0,2.65,0.27,5.22,0.78,7.72l-56.99,31.06v-55.13L184.25,73.16z M184.21,127.38c7.06,0,12.78,5.71,12.78,12.78    c0,7.06-5.72,12.77-12.78,12.77c-7.05,0-12.76-5.72-12.76-12.77C171.45,133.09,177.16,127.38,184.21,127.38z" />
	</g>
</g>
</svg>