<?xml version="1.0" encoding="utf-8"?>
<!-- Generator: Adobe Illustrator 26.0.1, SVG Export Plug-In . SVG Version: 6.00 Build 0)  -->
<svg version="1.2" baseProfile="tiny-ps" xmlns:xlink="http://www.w3.org/1999/xlink" viewBox="0 0 360 360" xmlns="http://www.w3.org/2000/svg">
  <title>Smart Infra Solutions</title>
<rect x="-320.19" y="-320.38" fill="#FFFFFF" width="1000" height="1000" />
<g>
	<g>
		<path fill="#176FD3" d="M179.81,290.71l-94.22-50.46l-33.54,18.22l127.75,71.33v0.01h0.01h0v-0.01l127.75-71.33V128.13    l-111.88,60.71c-4.83-2.18-10.19-3.45-15.84-3.45c-21.17,0-38.33,17.16-38.33,38.32s17.16,38.33,38.33,38.33    c21.17,0,38.33-17.16,38.33-38.33c0-2.66-0.27-5.22-0.78-7.73l56.99-31.05v55.13L179.81,290.71z M179.86,236.5    c-7.06,0-12.78-5.72-12.78-12.79c0-7.06,5.72-12.77,12.78-12.77c7.05,0,12.76,5.72,12.76,12.77    C192.62,230.79,186.9,236.5,179.86,236.5z" />
		<path fill="#37BBDF" d="M179.81,68.54l94.22,50.46l33.54-18.22L179.82,29.45v-0.01h0h-0.01v0.01L52.05,100.77v130.34l111.88-60.71    c4.83,2.18,10.18,3.45,15.83,3.45c21.17,0,38.33-17.16,38.33-38.33S200.94,97.2,179.77,97.2c-21.17,0-38.33,17.16-38.33,38.33    c0,2.65,0.27,5.22,0.78,7.72l-56.99,31.06v-55.13L179.81,68.54z M179.77,122.75c7.06,0,12.78,5.71,12.78,12.78    c0,7.06-5.72,12.77-12.78,12.77c-7.05,0-12.76-5.72-12.76-12.77C167.01,128.46,172.72,122.75,179.77,122.75z" />
	</g>
</g>
</svg>