<?xml version="1.0" encoding="UTF-8" standalone="no"?>
<svg
   viewBox="0 0 32 32"
   version="1.1"
   id="svg1051"
   sodipodi:docname="audit_white.svg"
   inkscape:version="1.1.1 (3bf5ae0d25, 2021-09-20)"
   xmlns:inkscape="http://www.inkscape.org/namespaces/inkscape"
   xmlns:sodipodi="http://sodipodi.sourceforge.net/DTD/sodipodi-0.dtd"
   xmlns="http://www.w3.org/2000/svg"
   xmlns:svg="http://www.w3.org/2000/svg">
  <defs
     id="defs1055" />
  <sodipodi:namedview
     id="namedview1053"
     pagecolor="#ffffff"
     bordercolor="#666666"
     borderopacity="1.0"
     inkscape:pageshadow="2"
     inkscape:pageopacity="0.0"
     inkscape:pagecheckerboard="0"
     showgrid="false"
     inkscape:zoom="27.28125"
     inkscape:cx="15.981672"
     inkscape:cy="16"
     inkscape:window-width="2560"
     inkscape:window-height="1387"
     inkscape:window-x="-8"
     inkscape:window-y="-8"
     inkscape:window-maximized="1"
     inkscape:current-layer="svg1051" />
  <path
     d="M 19 3 C 13.488281 3 9 7.488281 9 13 C 9 15.394531 9.839844 17.589844 11.25 19.3125 L 3.28125 27.28125 L 4.71875 28.71875 L 12.6875 20.75 C 14.410156 22.160156 16.605469 23 19 23 C 24.511719 23 29 18.511719 29 13 C 29 7.488281 24.511719 3 19 3 Z M 19 5 C 23.429688 5 27 8.570313 27 13 C 27 17.429688 23.429688 21 19 21 C 14.570313 21 11 17.429688 11 13 C 11 8.570313 14.570313 5 19 5 Z"
     id="path1049" />
  <path
     style="fill:#ffffff;stroke-width:0.0366552"
     d="M 4.0135966,27.967778 3.317722,27.271179 7.285436,23.303339 c 2.1822427,-2.182313 3.967714,-3.981968 3.967714,-3.999236 0,-0.01727 -0.07986,-0.132702 -0.177467,-0.256523 C 10.05806,17.756655 9.3451264,16.039531 9.1026789,14.295533 9.0237079,13.727471 9.014154,12.322387 9.0857303,11.802978 9.3665605,9.7650804 10.148285,8.006176 11.439779,6.5063001 14.431989,3.0312956 19.333586,2.0329818 23.42268,4.0657289 c 1.967876,0.9782589 3.533332,2.5437152 4.511591,4.5115907 1.387977,2.7920684 1.392941,6.0151464 0.01358,8.8167994 -1.229478,2.497222 -3.504861,4.415409 -6.1489,5.183628 -0.982939,0.285591 -1.691516,0.383551 -2.774896,0.383628 -1.243245,7.3e-5 -2.05647,-0.126751 -3.152348,-0.491672 -1.068886,-0.355933 -2.207858,-0.964455 -2.993569,-1.599384 -0.08403,-0.06791 -0.166537,-0.123469 -0.18334,-0.123469 -0.0168,0 -1.811936,1.781443 -3.9891852,3.958763 -2.1772495,2.177319 -3.9670745,3.958763 -3.9773886,3.958763 -0.010314,0 -0.3318966,-0.313469 -0.7146276,-0.696598 z M 20.056202,20.945017 c 3.221926,-0.416065 5.902235,-2.783606 6.703306,-5.921092 0.706986,-2.76899 -0.07734,-5.6760615 -2.071232,-7.6769673 C 23.904371,6.5602961 23.062518,5.9946375 22.076099,5.5917807 19.99169,4.7405015 17.609261,4.7933271 15.593001,5.7355304 c -2.475003,1.1565757 -4.182303,3.4984911 -4.540063,6.2276386 -0.07221,0.550867 -0.07221,1.51134 0,2.062207 0.267828,2.043108 1.246659,3.828034 2.82106,5.144279 1.149747,0.961223 2.541768,1.568987 4.068728,1.77643 0.518689,0.07047 1.563622,0.06994 2.113476,-0.0011 z"
     id="path1151" />
</svg>
