<?xml version="1.0" encoding="UTF-8" standalone="no"?>
<svg
   viewBox="0 0 32 32"
   version="1.1"
   id="svg842"
   sodipodi:docname="backup.svg"
   inkscape:version="1.1.1 (3bf5ae0d25, 2021-09-20)"
   xmlns:inkscape="http://www.inkscape.org/namespaces/inkscape"
   xmlns:sodipodi="http://sodipodi.sourceforge.net/DTD/sodipodi-0.dtd"
   xmlns="http://www.w3.org/2000/svg"
   xmlns:svg="http://www.w3.org/2000/svg">
  <defs
     id="defs846" />
  <sodipodi:namedview
     id="namedview844"
     pagecolor="#ffffff"
     bordercolor="#666666"
     borderopacity="1.0"
     inkscape:pageshadow="2"
     inkscape:pageopacity="0.0"
     inkscape:pagecheckerboard="0"
     showgrid="false"
     inkscape:zoom="36.84375"
     inkscape:cx="15.986429"
     inkscape:cy="16"
     inkscape:window-width="2560"
     inkscape:window-height="1387"
     inkscape:window-x="-8"
     inkscape:window-y="-8"
     inkscape:window-maximized="1"
     inkscape:current-layer="svg842" />
  <path
     d="M 23.414062 4.4375 L 22 5.8515625 L 26.167969 10 L 16.5 10 C 13.468 10 11 12.467 11 15.5 C 11 18.533 13.468 21 16.5 21 L 17 21 L 17 19 L 16.5 19 C 14.57 19 13 17.43 13 15.5 C 13 13.57 14.57 12 16.5 12 L 26.171875 12 L 22.007812 16.164062 L 23.421875 17.578125 L 30 11 L 23.414062 4.4375 z M 5 5 L 5 27 L 27 27 L 27 17 L 25 19 L 25 25 L 7 25 L 7 7 L 17.853516 7 L 19.853516 5 L 5 5 z"
     id="path840" />
  <path
     style="fill:#ffffff;stroke-width:0.0271416"
     d="M 5.0212044,16 V 5.0212044 h 7.3891716 7.389172 L 18.822731,5.9983036 17.845915,6.9754029 H 12.410659 6.9754029 V 16 25.024597 H 16 25.024597 V 22.018518 19.01244 l 0.977099,-0.976817 0.9771,-0.976816 v 4.959994 4.959995 H 16 5.0212044 Z"
     id="path965" />
  <path
     style="fill:#ffffff;stroke-width:0.0271416"
     d="m 16,20.962677 c -1.530503,-0.181977 -2.754564,-0.826148 -3.694301,-1.944153 -0.799754,-0.951468 -1.233861,-2.078411 -1.278263,-3.318373 -0.05529,-1.54403 0.501476,-2.962655 1.592758,-4.05831 0.905549,-0.909178 2.046864,-1.458825 3.317668,-1.597759 0.175856,-0.01923 1.928044,-0.02917 5.265479,-0.02988 l 5.001918,-0.0011 -2.086835,-2.078272 -2.086835,-2.078272 0.694016,-0.6940166 0.694017,-0.6940166 3.265592,3.2523297 c 1.796075,1.7887812 3.26865,3.2597075 3.272388,3.2687245 0.0037,0.009 -1.464929,1.488083 -3.263704,3.286811 l -3.270501,3.270416 -0.692257,-0.691858 -0.692258,-0.691859 2.083122,-2.083254 2.083123,-2.083254 h -5.023141 c -4.500722,0 -5.04975,0.0046 -5.278984,0.04384 -1.462129,0.250558 -2.604725,1.390381 -2.862621,2.855674 -0.05355,0.304268 -0.05355,0.899243 0,1.203511 0.227439,1.292247 1.158171,2.358424 2.398576,2.747629 0.359322,0.112746 0.648206,0.151888 1.121002,0.151888 h 0.430711 v 0.99067 0.99067 l -0.454623,-0.0041 C 16.286005,20.974189 16.044784,20.968002 16,20.962677 Z"
     id="path1004" />
</svg>
