<?xml version="1.0" encoding="UTF-8" standalone="no"?>
<svg
   viewBox="0 0 32 32"
   version="1.1"
   id="svg1059"
   sodipodi:docname="interventions.svg"
   inkscape:version="1.1.1 (3bf5ae0d25, 2021-09-20)"
   xmlns:inkscape="http://www.inkscape.org/namespaces/inkscape"
   xmlns:sodipodi="http://sodipodi.sourceforge.net/DTD/sodipodi-0.dtd"
   xmlns="http://www.w3.org/2000/svg"
   xmlns:svg="http://www.w3.org/2000/svg">
  <defs
     id="defs1063" />
  <sodipodi:namedview
     id="namedview1061"
     pagecolor="#ffffff"
     bordercolor="#666666"
     borderopacity="1.0"
     inkscape:pageshadow="2"
     inkscape:pageopacity="0.0"
     inkscape:pagecheckerboard="0"
     showgrid="false"
     inkscape:zoom="27.28125"
     inkscape:cx="15.981672"
     inkscape:cy="16"
     inkscape:window-width="2560"
     inkscape:window-height="1387"
     inkscape:window-x="-8"
     inkscape:window-y="-8"
     inkscape:window-maximized="1"
     inkscape:current-layer="svg1059" />
  <path
     d="M 1 4 L 1 25 L 4.15625 25 C 4.601563 26.71875 6.148438 28 8 28 C 9.851563 28 11.398438 26.71875 11.84375 25 L 20.15625 25 C 20.601563 26.71875 22.148438 28 24 28 C 25.851563 28 27.398438 26.71875 27.84375 25 L 31 25 L 31 14.59375 L 30.71875 14.28125 L 24.71875 8.28125 L 24.40625 8 L 19 8 L 19 4 Z M 3 6 L 17 6 L 17 23 L 11.84375 23 C 11.398438 21.28125 9.851563 20 8 20 C 6.148438 20 4.601563 21.28125 4.15625 23 L 3 23 Z M 19 10 L 23.5625 10 L 29 15.4375 L 29 23 L 27.84375 23 C 27.398438 21.28125 25.851563 20 24 20 C 22.148438 20 20.601563 21.28125 20.15625 23 L 19 23 Z M 8 22 C 9.117188 22 10 22.882813 10 24 C 10 25.117188 9.117188 26 8 26 C 6.882813 26 6 25.117188 6 24 C 6 22.882813 6.882813 22 8 22 Z M 24 22 C 25.117188 22 26 22.882813 26 24 C 26 25.117188 25.117188 26 24 26 C 22.882813 26 22 25.117188 22 24 C 22 22.882813 22.882813 22 24 22 Z"
     id="path1057" />
  <path
     style="fill:#ffffff;stroke-width:0.0366552"
     d="M 7.2806587,27.910969 C 6.919857,27.839279 6.5888722,27.72391 6.231386,27.545231 5.3148038,27.087105 4.5782363,26.230682 4.254169,25.246277 L 4.1727171,24.998855 H 2.5995315 1.0263459 V 14.515464 4.0320733 H 10.006873 18.9874 v 1.9977091 1.997709 h 2.721215 2.721216 l 3.271911,3.2719116 3.271912,3.271912 v 5.21377 5.21377 h -1.573186 -1.573185 l -0.08145,0.247422 c -0.450473,1.368382 -1.626021,2.396218 -3.049395,2.666227 -0.378276,0.07176 -1.038021,0.07079 -1.422188,-0.0021 -0.998438,-0.189401 -1.951659,-0.817476 -2.527408,-1.665302 -0.184589,-0.271821 -0.453346,-0.827451 -0.518596,-1.072151 L 20.181816,24.99884 H 16 11.818183 l -0.04643,0.174112 c -0.02553,0.09576 -0.117636,0.324588 -0.204669,0.508503 -0.557759,1.178636 -1.6023786,1.991718 -2.8706523,2.234379 -0.3378698,0.06464 -1.0787214,0.06209 -1.415776,-0.0049 z m 1.1317124,-1.940913 c 0.9523589,-0.19995 1.5945019,-0.994308 1.5945019,-1.972466 0,-0.929793 -0.6030708,-1.71632 -1.4927584,-1.946861 -0.2583891,-0.06696 -0.6925525,-0.07484 -0.9705006,-0.01761 -0.547101,0.112635 -1.0792233,0.524591 -1.3264088,1.026874 -0.4120009,0.83719 -0.2766369,1.727434 0.3593666,2.363437 0.5003231,0.500323 1.1437812,0.69192 1.8357993,0.546628 z M 24.430699,25.9698 c 0.394514,-0.0832 0.694826,-0.248487 0.992729,-0.546389 0.381576,-0.381576 0.600499,-0.897174 0.600499,-1.414265 0,-0.507337 -0.244478,-1.092737 -0.60451,-1.447491 -0.618475,-0.609409 -1.574934,-0.746574 -2.378244,-0.341065 -0.289435,0.146106 -0.674459,0.531131 -0.820565,0.820565 -0.513069,1.016383 -0.131634,2.263147 0.838747,2.741544 0.463487,0.2285 0.895522,0.287444 1.371344,0.187101 z M 4.2345966,22.808706 c 0.160529,-0.553713 0.520022,-1.139271 0.9864402,-1.606758 0.5090368,-0.510204 1.0487731,-0.83653 1.6938509,-1.024108 1.9842317,-0.576983 4.0923223,0.513668 4.7945723,2.48054 l 0.122381,0.342765 2.588088,0.0094 2.588089,0.0094 V 14.497382 5.9747995 H 9.9885452 2.9690722 v 8.5223365 8.522337 h 0.60221 0.60221 z M 20.290576,22.65838 c 0.607953,-1.703268 2.345727,-2.813995 4.094635,-2.617154 0.945131,0.106375 1.714626,0.479571 2.393305,1.160722 0.465799,0.467496 0.780955,0.974626 0.968874,1.559055 l 0.08311,0.25847 h 0.600214 0.600215 v -3.78456 -3.784559 L 26.291042,12.710286 23.551157,9.9702176 H 21.269278 18.9874 v 6.5255354 6.525536 l 0.590416,-0.01007 0.590416,-0.01007 z"
     id="path1159" />
</svg>
