<?xml version="1.0" encoding="UTF-8" standalone="no"?>
<svg
   viewBox="0 0 32 32"
   version="1.1"
   id="svg1213"
   sodipodi:docname="iot.svg"
   inkscape:version="1.1.1 (3bf5ae0d25, 2021-09-20)"
   xmlns:inkscape="http://www.inkscape.org/namespaces/inkscape"
   xmlns:sodipodi="http://sodipodi.sourceforge.net/DTD/sodipodi-0.dtd"
   xmlns="http://www.w3.org/2000/svg"
   xmlns:svg="http://www.w3.org/2000/svg">
  <defs
     id="defs1217" />
  <sodipodi:namedview
     id="namedview1215"
     pagecolor="#ffffff"
     bordercolor="#666666"
     borderopacity="1.0"
     inkscape:pageshadow="2"
     inkscape:pageopacity="0.0"
     inkscape:pagecheckerboard="0"
     showgrid="false"
     inkscape:zoom="27.28125"
     inkscape:cx="15.981672"
     inkscape:cy="16"
     inkscape:window-width="2560"
     inkscape:window-height="1387"
     inkscape:window-x="-8"
     inkscape:window-y="-8"
     inkscape:window-maximized="1"
     inkscape:current-layer="svg1213" />
  <path
     d="M 16 1 C 14.894531 1 14 1.894531 14 3 C 14 3.738281 14.402344 4.371094 15 4.71875 L 15 7 L 10 7 C 7.25 7 5 9.25 5 12 L 5 14 L 2 14 L 2 22 L 5 22 L 5 27 L 27 27 L 27 22 L 30 22 L 30 14 L 27 14 L 27 12 C 27 9.25 24.75 7 22 7 L 17 7 L 17 4.71875 C 17.597656 4.371094 18 3.738281 18 3 C 18 1.894531 17.105469 1 16 1 Z M 10 9 L 22 9 C 23.667969 9 25 10.332031 25 12 L 25 25 L 23 25 L 23 20 L 9 20 L 9 25 L 7 25 L 7 12 C 7 10.332031 8.332031 9 10 9 Z M 12 13 C 10.894531 13 10 13.894531 10 15 C 10 16.105469 10.894531 17 12 17 C 13.105469 17 14 16.105469 14 15 C 14 13.894531 13.105469 13 12 13 Z M 20 13 C 18.894531 13 18 13.894531 18 15 C 18 16.105469 18.894531 17 20 17 C 21.105469 17 22 16.105469 22 15 C 22 13.894531 21.105469 13 20 13 Z M 4 16 L 5 16 L 5 20 L 4 20 Z M 27 16 L 28 16 L 28 20 L 27 20 Z M 11 22 L 13 22 L 13 25 L 11 25 Z M 15 22 L 17 22 L 17 25 L 15 25 Z M 19 22 L 21 22 L 21 25 L 19 25 Z"
     id="path1211" />
  <path
     style="fill:#ffffff;stroke-width:0.0366552"
     d="M 5.021764,24.485682 V 21.993127 H 3.5189003 2.0160367 V 17.997709 14.002291 H 3.5189003 5.021764 L 5.0219803,12.82016 C 5.0222735,11.220227 5.1011557,10.739314 5.5009581,9.9000533 5.768338,9.3387722 6.050542,8.9385582 6.4865191,8.5023582 7.221731,7.7667706 8.0387611,7.3273354 9.0891909,7.102525 9.4193536,7.0318644 9.5935564,7.0268199 12.233677,7.0114668 l 2.79496,-0.016253 -0.0018,-1.1425096 -0.0018,-1.1425093 -0.205589,-0.1466208 C 14.153342,4.0884667 13.856469,3.156601 14.125158,2.3839856 14.603467,1.0086077 16.305916,0.57646977 17.34425,1.5668731 c 0.116796,0.111404 0.263694,0.2825559 0.32644,0.3803375 0.545309,0.8497904 0.322975,2.0364147 -0.49022,2.6163633 l -0.205589,0.1466208 -0.0018,1.1428201 -0.0018,1.1428201 2.758305,0.014346 c 2.461645,0.012803 2.795757,0.021428 3.106529,0.080193 1.053337,0.1991785 1.932887,0.6629773 2.675831,1.4110028 0.771491,0.7767671 1.251141,1.7233873 1.412891,2.7884283 0.03774,0.248509 0.05295,0.686732 0.0531,1.530355 l 2.17e-4,1.182131 h 1.502864 1.502863 v 3.995418 3.995418 H 28.4811 26.978236 v 2.492555 2.492554 H 16 5.021764 Z M 9.0171821,22.5063 V 20.013746 H 16 22.982818 v 2.492554 2.492555 h 1.027467 1.027467 l -0.01198,-6.717068 c -0.01133,-6.35139 -0.0156,-6.730807 -0.07855,-6.969446 C 24.782952,10.689612 24.550907,10.286129 24.101573,9.8419244 23.694771,9.4397647 23.321402,9.2291101 22.721796,9.0634542 22.502551,9.0028822 22.083464,8.9988545 16,8.9988545 c -6.0834643,0 -6.5025507,0.00403 -6.7217961,0.0646 C 8.6694528,9.2316367 8.3015793,9.4412107 7.8795543,9.860252 7.4429408,10.293778 7.2188994,10.689397 7.049232,11.32646 6.990372,11.547466 6.984925,12.051116 6.974012,18.281787 L 6.962248,24.998855 H 7.9897149 9.0171821 Z M 13.0126,23.495991 v -1.502864 h -1.008018 -1.008018 v 1.502864 1.502864 h 1.008018 1.008018 z m 3.995418,0 V 21.993127 H 16 14.991982 v 1.502864 1.502864 H 16 17.008018 Z m 3.995418,0 V 21.993127 H 19.995418 18.9874 v 1.502864 1.502864 h 1.008018 1.008018 z M 5.021764,17.997709 V 15.981672 H 4.5085911 3.9954181 v 2.016037 2.016037 h 0.513173 0.5131729 z m 22.982818,0 v -2.016037 h -0.513173 -0.513173 v 2.016037 2.016037 h 0.513173 0.513173 z"
     id="path1313" />
  <path
     style="fill:#ffffff;stroke-width:0.0366552"
     d="m 11.509737,16.913027 c -0.891244,-0.236563 -1.482582,-1.012134 -1.478685,-1.939373 0.0039,-0.916325 0.661098,-1.713929 1.570323,-1.905671 0.321199,-0.06774 0.484179,-0.06802 0.798602,-0.0014 0.722121,0.153016 1.325469,0.725403 1.509533,1.432071 0.180459,0.692833 -0.0419,1.446981 -0.574019,1.94686 -0.475023,0.446238 -1.203306,0.632724 -1.825754,0.467508 z"
     id="path1352" />
  <path
     style="fill:#ffffff;stroke-width:0.0366552"
     d="m 19.510635,16.917213 c -0.870792,-0.244828 -1.476271,-1.022661 -1.476271,-1.896502 0,-0.572022 0.184779,-1.019923 0.586484,-1.421627 0.272279,-0.27228 0.60718,-0.453624 0.986053,-0.533935 0.30744,-0.06517 0.472051,-0.06458 0.791724,0.0028 0.911415,0.192204 1.563269,0.983715 1.569429,1.905671 0.0057,0.857448 -0.51426,1.606288 -1.312842,1.890633 -0.288056,0.102566 -0.871983,0.129567 -1.144577,0.05293 z"
     id="path1391" />
</svg>
