<?xml version="1.0" encoding="UTF-8" standalone="no"?>
<svg
   viewBox="0 0 32 32"
   version="1.1"
   id="svg842"
   sodipodi:docname="lan-managé.svg"
   inkscape:version="1.1.1 (3bf5ae0d25, 2021-09-20)"
   xmlns:inkscape="http://www.inkscape.org/namespaces/inkscape"
   xmlns:sodipodi="http://sodipodi.sourceforge.net/DTD/sodipodi-0.dtd"
   xmlns="http://www.w3.org/2000/svg"
   xmlns:svg="http://www.w3.org/2000/svg">
  <defs
     id="defs846" />
  <sodipodi:namedview
     id="namedview844"
     pagecolor="#ffffff"
     bordercolor="#666666"
     borderopacity="1.0"
     inkscape:pageshadow="2"
     inkscape:pageopacity="0.0"
     inkscape:pagecheckerboard="0"
     showgrid="false"
     inkscape:zoom="36.84375"
     inkscape:cx="15.986429"
     inkscape:cy="16"
     inkscape:window-width="2560"
     inkscape:window-height="1387"
     inkscape:window-x="-8"
     inkscape:window-y="-8"
     inkscape:window-maximized="1"
     inkscape:current-layer="svg842" />
  <path
     d="M 16 2 C 14.617188 2 13.46875 2.96875 13.125 4.25 C 12.773438 4.105469 12.402344 4 12 4 C 10.355469 4 9 5.355469 9 7 L 9 17.75 L 8.125 16.875 C 6.960938 15.710938 5.039063 15.710938 3.875 16.875 C 2.710938 18.039063 2.710938 19.960938 3.875 21.125 L 10.65625 27.90625 C 11.832031 29.078125 13.457031 30 15.375 30 L 20 30 C 23.855469 30 27 26.855469 27 23 L 27 11 C 27 9.355469 25.644531 8 24 8 C 23.648438 8 23.316406 8.074219 23 8.1875 L 23 7 C 23 5.355469 21.644531 4 20 4 C 19.597656 4 19.226563 4.105469 18.875 4.25 C 18.53125 2.96875 17.382813 2 16 2 Z M 16 4 C 16.566406 4 17 4.433594 17 5 L 17 15 L 19 15 L 19 7 C 19 6.433594 19.433594 6 20 6 C 20.566406 6 21 6.433594 21 7 L 21 15 L 23 15 L 23 11 C 23 10.433594 23.433594 10 24 10 C 24.566406 10 25 10.433594 25 11 L 25 23 C 25 25.773438 22.773438 28 20 28 L 15.375 28 C 14.101563 28 13.007813 27.378906 12.09375 26.46875 L 5.28125 19.71875 C 4.882813 19.320313 4.882813 18.679688 5.28125 18.28125 C 5.679688 17.882813 6.320313 17.882813 6.71875 18.28125 L 9.28125 20.875 L 11 22.59375 L 11 7 C 11 6.433594 11.433594 6 12 6 C 12.566406 6 13 6.433594 13 7 L 13 15 L 15 15 L 15 5 C 15 4.433594 15.433594 4 16 4 Z"
     id="path840" />
  <path
     style="fill:#ffffff;stroke-width:0.0271416"
     d="M 14.955047,29.973512 C 14.40493,29.928843 13.706572,29.769318 13.209995,29.574891 12.572104,29.325134 11.869393,28.915431 11.290925,28.456007 10.972157,28.20284 3.8120435,21.050976 3.6073319,20.781268 3.1734667,20.209648 2.9553353,19.417385 3.0348741,18.702074 c 0.2244831,-2.018826 2.263547,-3.225354 4.1345633,-2.446447 0.4230509,0.176116 0.6219218,0.326121 1.2327456,0.929841 0.3145,0.310843 0.5801489,0.565168 0.5903308,0.565168 0.010182,0 0.018584,-2.458015 0.018673,-5.462256 1.629e-4,-5.9241483 -0.00458,-5.7246567 0.1475043,-6.1884607 0.2755816,-0.8404188 0.9442879,-1.5543402 1.7568599,-1.8756487 0.368247,-0.1456127 0.625332,-0.1917568 1.067485,-0.1916029 0.424445,1.466e-4 0.649708,0.039893 0.992985,0.1751996 0.07447,0.029354 0.139474,0.053371 0.14445,0.053371 0.005,0 0.04259,-0.094656 0.08359,-0.2103477 C 13.523566,3.1493722 14.23414,2.4435357 15.104321,2.1633005 15.4538,2.050755 15.625587,2.0240465 16,2.0240465 c 0.373737,0 0.544869,0.026529 0.895674,0.1388488 0.870431,0.2786913 1.579636,0.9833192 1.90026,1.8879953 0.041,0.1156912 0.07862,0.2103477 0.0836,0.2103477 0.005,0 0.06998,-0.024017 0.14445,-0.053371 0.350664,-0.1382189 0.566599,-0.1755648 1.006555,-0.1740836 0.36463,0.00123 0.455935,0.010837 0.685115,0.072106 0.860837,0.2301353 1.55379,0.7891377 1.950345,1.5733342 0.259624,0.5134109 0.322596,0.8714396 0.32282,1.8353922 l 1.62e-4,0.6884921 0.06107,-0.017999 c 0.529803,-0.1561526 0.858616,-0.1967859 1.244364,-0.1537726 1.356015,0.1512048 2.467244,1.2142426 2.656167,2.5409774 0.02252,0.158137 0.02847,1.961309 0.0221,6.689773 -0.0097,7.1836 0.0054,6.589106 -0.187224,7.379473 -0.231258,0.948925 -0.71548,1.935392 -1.327123,2.703649 -0.255433,0.320837 -0.706106,0.775424 -1.040489,1.049522 -0.991013,0.812349 -2.108154,1.309311 -3.423018,1.522742 -0.342121,0.05553 -0.443864,0.05753 -3.135613,0.06168 -1.53011,0.0024 -2.83698,-2.72e-4 -2.904156,-0.0056 z m 5.585463,-1.992085 c 0.9442,-0.103001 1.825602,-0.459666 2.570601,-1.040207 0.256931,-0.200214 0.67989,-0.632044 0.880349,-0.898811 0.622638,-0.828599 0.940829,-1.702334 1.008195,-2.768448 0.04202,-0.665049 0.02103,-12.455386 -0.02239,-12.580525 -0.158493,-0.456684 -0.576883,-0.7336757 -1.053727,-0.697612 -0.380508,0.028778 -0.6873,0.237848 -0.845005,0.575847 l -0.07598,0.16285 -0.0074,2.123834 -0.0074,2.123833 h -0.989688 -0.989689 l -0.0071,-4.132315 -0.0071,-4.1323157 -0.07126,-0.1492791 c -0.105853,-0.2215231 -0.24478,-0.3650994 -0.45204,-0.4670534 -0.172119,-0.084668 -0.197308,-0.089345 -0.480626,-0.089254 -0.274408,8.14e-5 -0.31078,0.0063 -0.442454,0.075591 -0.204069,0.107383 -0.336654,0.236946 -0.442816,0.4327214 l -0.09226,0.1701331 -0.0071,4.1458869 -0.0071,4.145885 h -0.989982 -0.989982 l -0.0071,-5.109414 -0.0071,-5.1094147 -0.06253,-0.1547517 C 16.854066,4.3916859 16.673443,4.2007476 16.453424,4.0924329 16.285422,4.0097255 16.253173,4.0033927 16,4.0033927 c -0.253173,0 -0.285422,0.00633 -0.453424,0.08904 -0.220019,0.1083147 -0.400642,0.299253 -0.488289,0.5161742 l -0.06253,0.1547517 -0.0071,5.1094147 -0.0071,5.1094147 H 13.991512 13.00153 L 12.99443,10.836302 12.98733,6.6904154 12.89507,6.5202823 C 12.788858,6.3245071 12.656273,6.1949441 12.452204,6.0875611 c -0.131638,-0.069269 -0.168086,-0.075502 -0.442026,-0.075591 -0.266953,-8.15e-5 -0.314925,0.00758 -0.45317,0.072377 -0.197233,0.092451 -0.386147,0.281365 -0.478598,0.4785974 L 11.00594,6.7175569 10.99237,14.639768 10.9788,22.56198 8.7971031,20.359809 C 6.2916082,17.830805 6.468746,17.98134 5.9983036,17.98134 c -0.2377323,0 -0.2738013,0.0073 -0.4394971,0.08887 -0.2250715,0.110802 -0.4280975,0.324983 -0.5140279,0.542269 -0.086793,0.219468 -0.086253,0.553815 0.00126,0.780232 0.059163,0.153068 0.138969,0.238673 1.3286388,1.425181 0.6961322,0.694283 1.9435576,1.934046 2.7720563,2.755029 3.4673513,3.435899 3.3895673,3.362194 3.9083963,3.703381 0.57918,0.380871 1.21018,0.626489 1.805341,0.70273 0.278212,0.03564 5.355669,0.03779 5.680038,0.0024 z"
     id="path965" />
</svg>
