<?xml version="1.0" encoding="UTF-8" standalone="no"?>
<svg
   viewBox="0 0 32 32"
   version="1.1"
   id="svg1593"
   sodipodi:docname="recyclage.svg"
   inkscape:version="1.1.1 (3bf5ae0d25, 2021-09-20)"
   xmlns:inkscape="http://www.inkscape.org/namespaces/inkscape"
   xmlns:sodipodi="http://sodipodi.sourceforge.net/DTD/sodipodi-0.dtd"
   xmlns="http://www.w3.org/2000/svg"
   xmlns:svg="http://www.w3.org/2000/svg">
  <defs
     id="defs1597" />
  <sodipodi:namedview
     id="namedview1595"
     pagecolor="#ffffff"
     bordercolor="#666666"
     borderopacity="1.0"
     inkscape:pageshadow="2"
     inkscape:pageopacity="0.0"
     inkscape:pagecheckerboard="0"
     showgrid="false"
     inkscape:zoom="27.28125"
     inkscape:cx="15.981672"
     inkscape:cy="16"
     inkscape:window-width="2560"
     inkscape:window-height="1387"
     inkscape:window-x="-8"
     inkscape:window-y="-8"
     inkscape:window-maximized="1"
     inkscape:current-layer="svg1593" />
  <path
     d="M 16 3.96875 C 14.945313 3.96875 13.882813 4.484375 13.25 5.46875 L 10.4375 10.09375 L 12.15625 11.125 L 14.96875 6.53125 C 15.507813 5.726563 16.53125 5.707031 17.0625 6.53125 L 20.1875 11.53125 L 18.6875 12.40625 L 23.3125 15 L 23.3125 9.6875 L 21.875 10.53125 L 18.75 5.46875 C 18.117188 4.484375 17.054688 3.96875 16 3.96875 Z M 10.40625 12.09375 L 5.90625 14.6875 L 7.15625 15.4375 L 4.59375 19.65625 L 4.5625 19.625 C 4.550781 19.644531 4.574219 19.667969 4.5625 19.6875 C 3.089844 21.917969 4.789063 25 7.5 25 L 13 25 L 13 23 L 7.5 23 C 6.234375 23 5.554688 21.75 6.21875 20.78125 L 6.25 20.75 L 6.25 20.71875 L 8.875 16.46875 L 10.40625 17.40625 Z M 25.0625 15.65625 L 23.34375 16.71875 L 25.84375 20.71875 C 26.484375 21.808594 25.757813 23 24.59375 23 L 19 23 L 19 21 L 14.09375 24 L 19 27 L 19 25 L 24.59375 25 C 27.230469 25 28.921875 22 27.5625 19.6875 L 27.5625 19.65625 Z"
     id="path1591" />
  <path
     style="fill:#ffffff;stroke-width:0.0366552"
     d="M 7.144449,24.958495 C 6.1489057,24.862217 5.2057984,24.276848 4.6305725,23.398178 3.8819847,22.254694 3.8445754,20.898052 4.531162,19.79308 4.9929259,19.049931 7.15406,15.482664 7.1596648,15.454352 7.1632008,15.436491 6.9038314,15.263277 6.5832883,15.06943 6.2627452,14.875584 6.0065146,14.700507 6.0138869,14.68037 c 0.00737,-0.02014 0.9871606,-0.597859 2.1773074,-1.283826 l 2.1639027,-1.247213 0.0094,2.581826 c 0.0052,1.420005 0.0028,2.588397 -0.0052,2.596428 -0.008,0.008 -0.338938,-0.184297 -0.7353484,-0.427396 -0.3964111,-0.2431 -0.7322198,-0.441821 -0.7462415,-0.441603 -0.020295,3.3e-4 -1.5928277,2.525222 -2.6002876,4.175102 -0.3288281,0.538509 -0.4055489,0.920106 -0.2715499,1.350646 0.1300131,0.417733 0.4524306,0.760623 0.876049,0.931675 l 0.2108439,0.08514 2.9415805,0.01041 2.941581,0.01041 v 0.988448 0.988448 l -2.758305,-0.005 c -1.5170673,-0.0027 -2.9000033,-0.01866 -3.073191,-0.03541 z"
     id="path1693" />
  <path
     style="fill:#ffffff;stroke-width:0.0366552"
     d="m 21.241695,13.811602 c -1.10882,-0.622205 -2.12687,-1.193243 -2.262333,-1.268975 l -0.246297,-0.137694 0.713859,-0.41478 c 0.392622,-0.228129 0.723048,-0.429649 0.73428,-0.447823 C 20.208774,11.49772 17.065061,6.4724687 16.891693,6.284011 16.816313,6.202073 16.659074,6.0866088 16.54227,6.0274245 16.359821,5.9349795 16.288468,5.9198167 16.035884,5.9198167 c -0.258305,0 -0.323733,0.014632 -0.538734,0.1204765 -0.146145,0.071947 -0.30087,0.1843527 -0.384109,0.2790507 -0.07666,0.087216 -0.774438,1.1966794 -1.550613,2.4654746 l -1.411225,2.3069005 -0.832757,-0.496604 c -0.458016,-0.273132 -0.833239,-0.504852 -0.833828,-0.514932 -0.0032,-0.05413 2.874566,-4.7361054 3.026205,-4.9235342 0.369504,-0.4567126 1.019314,-0.8765469 1.628063,-1.0518715 0.392786,-0.1131255 1.0601,-0.1387312 1.468334,-0.056342 0.660675,0.1333369 1.235004,0.4439103 1.702058,0.9204041 0.269236,0.2746772 0.424533,0.511892 1.897019,2.8976958 0.882077,1.4291901 1.617514,2.6198618 1.634303,2.6459378 0.02286,0.0355 0.203802,-0.05438 0.72035,-0.357814 0.379402,-0.2228727 0.695624,-0.3994222 0.702714,-0.392332 0.0071,0.00709 0.0087,1.175616 0.0035,2.596723 l -0.0094,2.583832 z"
     id="path1732" />
  <path
     style="fill:#ffffff;stroke-width:0.0366552"
     d="m 16.568156,25.489111 c -1.300344,-0.796506 -2.375758,-1.459462 -2.38981,-1.473234 -0.01405,-0.01377 1.058113,-0.687927 2.382589,-1.498122 l 2.408137,-1.473081 0.0098,0.988427 0.0098,0.988427 2.997911,-0.01019 2.997911,-0.01019 0.278769,-0.137793 c 0.767143,-0.379194 1.050671,-1.245694 0.661597,-2.021928 -0.04971,-0.09919 -0.641961,-1.06262 -1.316101,-2.140964 -0.67414,-1.078344 -1.212648,-1.972834 -1.196685,-1.987756 0.01596,-0.01492 0.390732,-0.250953 0.83282,-0.524513 0.722929,-0.447343 0.808159,-0.491049 0.847154,-0.434425 0.139169,0.202081 2.43669,3.907601 2.519601,4.063697 0.266631,0.501987 0.398254,1.046162 0.397682,1.644164 -8.8e-4,0.918727 -0.347333,1.774699 -0.991171,2.448847 -0.602484,0.630847 -1.308678,0.977056 -2.147509,1.052809 -0.201603,0.01821 -1.607789,0.03366 -3.124857,0.03434 l -2.758304,0.0012 v 0.971363 c 0,0.534249 -0.01237,0.970401 -0.02749,0.969224 -0.01512,-0.0012 -1.091409,-0.653825 -2.391752,-1.450331 z"
     id="path1771" />
</svg>
