<?xml version="1.0" encoding="UTF-8" standalone="no"?>
<svg
   viewBox="0 0 32 32"
   version="1.1"
   id="svg4"
   sodipodi:docname="routeur-4g.svg"
   inkscape:version="1.1.1 (3bf5ae0d25, 2021-09-20)"
   xmlns:inkscape="http://www.inkscape.org/namespaces/inkscape"
   xmlns:sodipodi="http://sodipodi.sourceforge.net/DTD/sodipodi-0.dtd"
   xmlns="http://www.w3.org/2000/svg"
   xmlns:svg="http://www.w3.org/2000/svg">
  <defs
     id="defs8" />
  <sodipodi:namedview
     id="namedview6"
     pagecolor="#ffffff"
     bordercolor="#666666"
     borderopacity="1.0"
     inkscape:pageshadow="2"
     inkscape:pageopacity="0.0"
     inkscape:pagecheckerboard="0"
     showgrid="false"
     inkscape:zoom="27.28125"
     inkscape:cx="15.981672"
     inkscape:cy="16"
     inkscape:window-width="2560"
     inkscape:window-height="1387"
     inkscape:window-x="-8"
     inkscape:window-y="-8"
     inkscape:window-maximized="1"
     inkscape:current-layer="svg4" />
  <path
     d="M 22.754185,10.717056 C 21.126555,8.8888042 18.809402,7.993461 16.394502,8.0070102 l -0.116397,1.0224873 c 2.149052,-0.014248 4.212619,0.7852525 5.661514,2.4127385 1.448895,1.627487 2.00424,3.769704 1.741412,5.902672 l 1.029088,0.0027 c 0.292896,-2.397109 -0.328304,-4.8023 -1.955934,-6.630552 z m -2.036415,1.812952 c -1.181426,-1.327049 -2.863844,-1.97071 -4.615555,-1.955421 l -0.116397,1.022487 c 1.485864,-0.01599 2.915962,0.533256 3.917385,1.658115 1.001424,1.124859 1.381494,2.608905 1.193678,4.082937 l 1.029086,0.0027 C 22.343853,15.602652 21.899195,13.857055 20.71777,12.530008 Z M 18.681354,14.34296 C 17.947399,13.518538 16.89845,13.125135 15.809929,13.142165 l -0.116397,1.022486 c 0.822674,-0.01773 1.618036,0.279834 2.173254,0.903489 0.55522,0.623656 0.758747,1.448106 0.645943,2.263202 l 1.029087,0.0027 c 0.14414,-1.077816 -0.126508,-2.166663 -0.860462,-2.991084 z"
     id="path2"
     style="stroke-width:0.515872"
     sodipodi:nodetypes="sccsccssccsccssccsccss" />
  <text
     xml:space="preserve"
     style="font-size:8px;line-height:1.25;font-family:sans-serif"
     x="5.5715923"
     y="21.993128"
     id="text7837"><tspan
       sodipodi:role="line"
       id="tspan7835"
       x="5.5715923"
       y="21.993128">4G</tspan></text>
</svg>
